<mxfile host="app.diagrams.net" modified="2023-06-22T05:10:44.563Z" agent="Mozilla/5.0 (Windows NT 10.0; Win64; x64) AppleWebKit/537.36 (KHTML, like Gecko) Chrome/114.0.0.0 Safari/537.36" etag="s_gxADm7D5ByMAl4T9fZ" version="21.5.0" type="google">
  <diagram name="Page-1" id="9WEvijXCPGtBv2WOpg53">
    <mxGraphModel grid="1" page="1" gridSize="10" guides="1" tooltips="1" connect="1" arrows="1" fold="1" pageScale="1" pageWidth="850" pageHeight="1100" math="0" shadow="0">
      <root>
        <mxCell id="0" />
        <mxCell id="1" parent="0" />
        <mxCell id="rD5ObZbJ1bHjBH-7aQtB-1" value="cashier" style="shape=umlActor;verticalLabelPosition=bottom;verticalAlign=top;html=1;outlineConnect=0;" vertex="1" parent="1">
          <mxGeometry x="180" y="210" width="30" height="60" as="geometry" />
        </mxCell>
        <mxCell id="rD5ObZbJ1bHjBH-7aQtB-2" value="customer" style="shape=umlActor;verticalLabelPosition=bottom;verticalAlign=top;html=1;outlineConnect=0;" vertex="1" parent="1">
          <mxGeometry x="650" y="210" width="30" height="60" as="geometry" />
        </mxCell>
        <mxCell id="rD5ObZbJ1bHjBH-7aQtB-4" value="select items" style="ellipse;whiteSpace=wrap;html=1;" vertex="1" parent="1">
          <mxGeometry x="360" y="210" width="80" height="40" as="geometry" />
        </mxCell>
        <mxCell id="rD5ObZbJ1bHjBH-7aQtB-5" value="" style="endArrow=classic;html=1;rounded=0;exitX=1;exitY=0.3333333333333333;exitDx=0;exitDy=0;exitPerimeter=0;" edge="1" parent="1" source="rD5ObZbJ1bHjBH-7aQtB-1">
          <mxGeometry width="50" height="50" relative="1" as="geometry">
            <mxPoint x="400" y="280" as="sourcePoint" />
            <mxPoint x="360" y="230" as="targetPoint" />
          </mxGeometry>
        </mxCell>
        <mxCell id="rD5ObZbJ1bHjBH-7aQtB-6" value="scan items" style="ellipse;whiteSpace=wrap;html=1;" vertex="1" parent="1">
          <mxGeometry x="280" y="290" width="90" height="40" as="geometry" />
        </mxCell>
        <mxCell id="rD5ObZbJ1bHjBH-7aQtB-7" value="payment" style="ellipse;whiteSpace=wrap;html=1;" vertex="1" parent="1">
          <mxGeometry x="430" y="290" width="90" height="40" as="geometry" />
        </mxCell>
        <mxCell id="rD5ObZbJ1bHjBH-7aQtB-8" value="" style="endArrow=classic;html=1;rounded=0;exitX=0;exitY=1;exitDx=0;exitDy=0;entryX=0.656;entryY=0.075;entryDx=0;entryDy=0;entryPerimeter=0;" edge="1" parent="1" source="rD5ObZbJ1bHjBH-7aQtB-4" target="rD5ObZbJ1bHjBH-7aQtB-6">
          <mxGeometry width="50" height="50" relative="1" as="geometry">
            <mxPoint x="400" y="280" as="sourcePoint" />
            <mxPoint x="450" y="230" as="targetPoint" />
          </mxGeometry>
        </mxCell>
        <mxCell id="rD5ObZbJ1bHjBH-7aQtB-9" value="" style="endArrow=classic;html=1;rounded=0;entryX=0.378;entryY=0;entryDx=0;entryDy=0;entryPerimeter=0;exitX=1;exitY=1;exitDx=0;exitDy=0;" edge="1" parent="1" source="rD5ObZbJ1bHjBH-7aQtB-4" target="rD5ObZbJ1bHjBH-7aQtB-7">
          <mxGeometry width="50" height="50" relative="1" as="geometry">
            <mxPoint x="420" y="240" as="sourcePoint" />
            <mxPoint x="450" y="230" as="targetPoint" />
          </mxGeometry>
        </mxCell>
        <mxCell id="rD5ObZbJ1bHjBH-7aQtB-10" value="by debt" style="ellipse;whiteSpace=wrap;html=1;" vertex="1" parent="1">
          <mxGeometry x="580" y="370" width="80" height="40" as="geometry" />
        </mxCell>
        <mxCell id="rD5ObZbJ1bHjBH-7aQtB-11" value="by cred" style="ellipse;whiteSpace=wrap;html=1;" vertex="1" parent="1">
          <mxGeometry x="460" y="370" width="85" height="40" as="geometry" />
        </mxCell>
        <mxCell id="rD5ObZbJ1bHjBH-7aQtB-12" value="by cash" style="ellipse;whiteSpace=wrap;html=1;" vertex="1" parent="1">
          <mxGeometry x="340" y="370" width="85" height="40" as="geometry" />
        </mxCell>
        <mxCell id="rD5ObZbJ1bHjBH-7aQtB-13" value="" style="endArrow=classic;html=1;rounded=0;entryX=0;entryY=1;entryDx=0;entryDy=0;" edge="1" parent="1" target="rD5ObZbJ1bHjBH-7aQtB-7">
          <mxGeometry width="50" height="50" relative="1" as="geometry">
            <mxPoint x="400" y="370" as="sourcePoint" />
            <mxPoint x="450" y="320" as="targetPoint" />
          </mxGeometry>
        </mxCell>
        <mxCell id="rD5ObZbJ1bHjBH-7aQtB-14" value="" style="endArrow=classic;html=1;rounded=0;entryX=0.656;entryY=0.95;entryDx=0;entryDy=0;entryPerimeter=0;" edge="1" parent="1" target="rD5ObZbJ1bHjBH-7aQtB-7">
          <mxGeometry width="50" height="50" relative="1" as="geometry">
            <mxPoint x="500" y="370" as="sourcePoint" />
            <mxPoint x="460" y="230" as="targetPoint" />
          </mxGeometry>
        </mxCell>
        <mxCell id="rD5ObZbJ1bHjBH-7aQtB-15" value="" style="endArrow=classic;html=1;rounded=0;entryX=0.956;entryY=0.7;entryDx=0;entryDy=0;entryPerimeter=0;" edge="1" parent="1" source="rD5ObZbJ1bHjBH-7aQtB-10" target="rD5ObZbJ1bHjBH-7aQtB-7">
          <mxGeometry width="50" height="50" relative="1" as="geometry">
            <mxPoint x="400" y="280" as="sourcePoint" />
            <mxPoint x="450" y="230" as="targetPoint" />
          </mxGeometry>
        </mxCell>
        <mxCell id="rD5ObZbJ1bHjBH-7aQtB-16" value="" style="endArrow=none;dashed=1;html=1;dashPattern=1 3;strokeWidth=2;rounded=0;exitX=1;exitY=0;exitDx=0;exitDy=0;entryX=0;entryY=0.3333333333333333;entryDx=0;entryDy=0;entryPerimeter=0;" edge="1" parent="1" source="rD5ObZbJ1bHjBH-7aQtB-7" target="rD5ObZbJ1bHjBH-7aQtB-2">
          <mxGeometry width="50" height="50" relative="1" as="geometry">
            <mxPoint x="400" y="280" as="sourcePoint" />
            <mxPoint x="450" y="230" as="targetPoint" />
          </mxGeometry>
        </mxCell>
      </root>
    </mxGraphModel>
  </diagram>
</mxfile>
